<?xml version="1.0" encoding="UTF-8" standalone="no" ?>
<!DOCTYPE svg PUBLIC "-//W3C//DTD SVG 1.1//EN" "http://www.w3.org/Graphics/SVG/1.1/DTD/svg11.dtd">
<svg xmlns="http://www.w3.org/2000/svg" xmlns:xlink="http://www.w3.org/1999/xlink" version="1.1" width="169.00384" height="48" viewBox="37.68340630050821 186.91343175574096 444.24467857091 126.17313648851814" xml:space="preserve">
<desc>Created with Fabric.js 4.6.0</desc>
<defs>
</defs>
<g transform="matrix(14.2 0 0 14.2 259.81 250)" id="Q1inBT3pa6ytNjtW6qJ8D"  >
<path style="stroke: none; stroke-width: 1; stroke-dasharray: none; stroke-linecap: butt; stroke-dashoffset: 0; stroke-linejoin: miter; stroke-miterlimit: 4; fill: rgb(0,0,0); fill-rule: nonzero; opacity: 1;" vector-effect="non-scaling-stroke"  transform=" translate(0, 0)" d="M -10.694 0.2782 C -10.694 0.1832 -10.744000000000002 0.0952 -10.826 0.04819999999999999 L -13.018 -1.2127999999999999 C -13.055000000000001 -1.2348 -13.097000000000001 -1.2457999999999998 -13.139000000000001 -1.2477999999999998 C -13.143 -1.2477999999999998 -13.159 -1.2477999999999998 -13.162 -1.2477999999999998 C -13.204 -1.2457999999999998 -13.245000000000001 -1.2348 -13.283000000000001 -1.2127999999999999 L -15.474 0.04820000000000002 C -15.556000000000001 0.09520000000000002 -15.607 0.18320000000000003 -15.607 0.2782 L -15.601999999999999 3.6742 C -15.601999999999999 3.7212 -15.576999999999998 3.7652 -15.535999999999998 3.7882 C -15.494999999999997 3.8122 -15.444999999999999 3.8122 -15.403999999999998 3.7882 L -14.101999999999999 3.0422 C -14.019999999999998 2.9932 -13.969999999999999 2.9071999999999996 -13.969999999999999 2.8122 L -13.969999999999999 1.2251999999999998 C -13.969999999999999 1.1311999999999998 -13.919999999999998 1.0432 -13.838 0.9961999999999999 L -13.283 0.6771999999999998 C -13.241999999999999 0.6531999999999998 -13.197 0.6421999999999998 -13.149999999999999 0.6421999999999998 C -13.104999999999999 0.6421999999999998 -13.059 0.6541999999999998 -13.017999999999999 0.6771999999999998 L -12.463999999999999 0.9961999999999998 C -12.381999999999998 1.0431999999999997 -12.331999999999999 1.1311999999999998 -12.331999999999999 1.2251999999999998 L -12.331999999999999 2.8122 C -12.331999999999999 2.9072 -12.280999999999999 2.9932 -12.198999999999998 3.0422 L -10.896999999999998 3.7882 C -10.855999999999998 3.8122 -10.804999999999998 3.8122 -10.764999999999999 3.7882 C -10.725 3.7651999999999997 -10.698999999999998 3.7211999999999996 -10.698999999999998 3.6742 L -10.694999999999999 0.2782 z M 1.008 -4.3908 C 0.967 -4.413799999999999 0.917 -4.4128 0.877 -4.3888 C 0.837 -4.3648 0.812 -4.3218 0.812 -4.2748 L 0.812 -0.9117999999999999 C 0.812 -0.8787999999999999 0.794 -0.8477999999999999 0.766 -0.8318 C 0.738 -0.8158 0.702 -0.8148 0.673 -0.8318 L 0.124 -1.1478 C 0.041999999999999996 -1.1947999999999999 -0.059 -1.1947999999999999 -0.14100000000000001 -1.1478 L -2.333 0.11719999999999997 C -2.415 0.16419999999999996 -2.466 0.2522 -2.466 0.34619999999999995 L -2.466 2.8772 C -2.466 2.9722000000000004 -2.4160000000000004 3.0592 -2.334 3.1062000000000003 L -0.1419999999999999 4.3722 C -0.0599999999999999 4.4192 0.04100000000000009 4.4192 0.12300000000000011 4.3722 L 2.3160000000000003 3.1062000000000003 C 2.398 3.0582000000000003 2.4480000000000004 2.9712000000000005 2.4480000000000004 2.8772 L 2.4480000000000004 -3.4318 C 2.4480000000000004 -3.5278 2.3960000000000004 -3.6158 2.3120000000000003 -3.6628 L 1.0070000000000003 -4.3908 z M 0.805 2.0462 C 0.805 2.0702 0.793 2.0921999999999996 0.772 2.1031999999999997 L 0.019000000000000017 2.5372 C -0.0009999999999999835 2.5492 -0.026999999999999982 2.5492 -0.046999999999999986 2.5372 L -0.8 2.1031999999999997 C -0.8210000000000001 2.0911999999999997 -0.8330000000000001 2.0692 -0.8330000000000001 2.0462 L -0.8330000000000001 1.1771999999999998 C -0.8330000000000001 1.1531999999999998 -0.8200000000000001 1.1311999999999998 -0.8 1.1201999999999999 L -0.04700000000000004 0.6851999999999998 C -0.02700000000000004 0.6731999999999998 -0.0010000000000000425 0.6731999999999998 0.01899999999999996 0.6851999999999998 L 0.772 1.1201999999999999 C 0.792 1.1321999999999999 0.805 1.1542 0.805 1.1771999999999998 z M 8.852 1.1542 C 8.933 1.1072 8.984 1.0202 8.984 0.9251999999999999 L 8.984 0.3121999999999999 C 8.984 0.21719999999999992 8.934 0.13119999999999993 8.852 0.08319999999999991 L 6.674 -1.1818 C 6.5920000000000005 -1.2298 6.4910000000000005 -1.2298 6.409000000000001 -1.1818 L 4.2170000000000005 0.08319999999999994 C 4.135000000000001 0.13019999999999993 4.085000000000001 0.21819999999999995 4.085000000000001 0.3121999999999999 L 4.085000000000001 2.8421999999999996 C 4.085000000000001 2.9372 4.136000000000001 3.0251999999999994 4.219000000000001 3.0721999999999996 L 6.397000000000001 4.3132 C 6.477000000000001 4.3592 6.576000000000001 4.3592 6.657000000000001 4.3142000000000005 L 7.974000000000001 3.5822000000000003 C 8.015 3.5592 8.041 3.5152 8.042000000000002 3.4672 C 8.043000000000001 3.4192 8.017000000000001 3.3752 7.976000000000002 3.3512 L 5.770000000000001 2.0852 C 5.729000000000001 2.0622 5.7040000000000015 2.0181999999999998 5.7040000000000015 1.9702 L 5.7040000000000015 1.1772 C 5.7040000000000015 1.1302 5.729000000000002 1.0862 5.770000000000001 1.0622 L 6.457000000000002 0.6672 C 6.498000000000002 0.6442 6.548000000000002 0.6442 6.589000000000001 0.6672 L 7.276000000000002 1.0622 C 7.317000000000002 1.0862 7.342000000000001 1.1292 7.342000000000001 1.1772 L 7.342000000000001 1.8012000000000001 C 7.342000000000001 1.8482 7.367000000000002 1.8922 7.408000000000001 1.9162000000000001 C 7.449000000000002 1.9402000000000001 7.500000000000001 1.9392 7.541000000000001 1.9162000000000001 L 8.853000000000002 1.1532 z M -6.707 -1.1948 C -6.625 -1.2418 -6.524 -1.2418 -6.442 -1.1948 L -4.25 0.07019999999999982 C -4.168 0.11719999999999982 -4.118 0.20419999999999983 -4.118 0.2991999999999998 L -4.118 2.8312 C -4.118 2.9262 -4.1690000000000005 3.0132 -4.25 3.0602 L -6.442 4.3262 C -6.524 4.3732 -6.625 4.3732 -6.707 4.3262 L -8.899000000000001 3.0602 C -8.981000000000002 3.0132 -9.031 2.9252000000000002 -9.031 2.8312 L -9.031 0.2991999999999999 C -9.031 0.2041999999999999 -8.981 0.11719999999999992 -8.899000000000001 0.0701999999999999 z M 13.108 4.3622 C 13.033000000000001 4.3622 12.957 4.3422 12.891 4.3042 L 12.201 3.8962 C 12.098 3.8382 12.149000000000001 3.8182 12.182 3.8062 C 12.319 3.7582 12.347 3.7472 12.494 3.6642 C 12.509 3.6552000000000002 12.53 3.6592000000000002 12.546 3.6682 L 13.075999999999999 3.9832 C 13.094999999999999 3.9942 13.121999999999998 3.9942 13.139999999999999 3.9832 L 15.206999999999999 2.7902 C 15.225999999999999 2.7792 15.238 2.7572 15.238 2.7342 L 15.238 0.34819999999999984 C 15.238 0.3251999999999998 15.225999999999999 0.30319999999999986 15.206 0.29119999999999985 L 13.14 -0.9008 C 13.121 -0.9118 13.095 -0.9118 13.076 -0.9008 L 11.010000000000002 0.2911999999999999 C 10.990000000000002 0.3021999999999999 10.977000000000002 0.32519999999999993 10.977000000000002 0.3481999999999999 L 10.977000000000002 2.7342 C 10.977000000000002 2.7572 10.990000000000002 2.7782 11.009000000000002 2.7892 L 11.575000000000003 3.1162 C 11.882000000000003 3.2702 12.070000000000002 3.0892 12.070000000000002 2.9072 L 12.070000000000002 0.5522 C 12.070000000000002 0.5192 12.097000000000001 0.4932 12.130000000000003 0.4932 L 12.392000000000003 0.4932 C 12.425000000000002 0.4932 12.452000000000004 0.5192 12.452000000000004 0.5522 L 12.452000000000004 2.9072 C 12.452000000000004 3.3172 12.229000000000003 3.5522 11.840000000000003 3.5522 C 11.721000000000004 3.5522 11.626000000000003 3.5522 11.364000000000004 3.4232 L 10.822000000000005 3.1112 C 10.688000000000004 3.0342000000000002 10.605000000000004 2.8892 10.605000000000004 2.7342000000000004 L 10.605000000000004 0.3482000000000003 C 10.605000000000004 0.1932000000000003 10.688000000000004 0.0482000000000003 10.822000000000005 -0.028799999999999715 L 12.889000000000005 -1.2227999999999997 C 13.020000000000005 -1.2967999999999997 13.194000000000004 -1.2967999999999997 13.323000000000004 -1.2227999999999997 L 15.390000000000004 -0.028799999999999715 C 15.524000000000004 0.048200000000000284 15.607000000000005 0.1932000000000003 15.607000000000005 0.3482000000000003 L 15.607000000000005 2.7342000000000004 C 15.607000000000005 2.8892 15.524000000000004 3.0332000000000003 15.390000000000004 3.1112 L 13.323000000000004 4.3042 C 13.257000000000003 4.3422 13.182000000000004 4.3622 13.105000000000004 4.3622 z M 13.747 2.7192 C 12.842 2.7192 12.653 2.3042 12.653 1.9551999999999998 C 12.653 1.9222 12.679 1.8961999999999999 12.713000000000001 1.8961999999999999 L 12.98 1.8961999999999999 C 13.01 1.8961999999999999 13.035 1.9182 13.039 1.9471999999999998 C 13.078999999999999 2.2192 13.199 2.3571999999999997 13.747 2.3571999999999997 C 14.182 2.3571999999999997 14.368 2.2581999999999995 14.368 2.0281999999999996 C 14.368 1.8951999999999996 14.316 1.7961999999999996 13.639000000000001 1.7301999999999995 C 13.074000000000002 1.6741999999999995 12.724 1.5491999999999995 12.724 1.0971999999999995 C 12.724 0.6801999999999995 13.076 0.4311999999999995 13.665000000000001 0.4311999999999995 C 14.327000000000002 0.4311999999999995 14.655000000000001 0.6611999999999995 14.696000000000002 1.1541999999999994 C 14.698000000000002 1.1711999999999994 14.692000000000002 1.1871999999999994 14.680000000000001 1.2001999999999995 C 14.668000000000001 1.2131999999999994 14.653000000000002 1.2191999999999994 14.636000000000001 1.2191999999999994 L 14.368 1.2191999999999994 C 14.34 1.2191999999999994 14.316 1.1991999999999994 14.31 1.1721999999999995 C 14.246 0.8861999999999994 14.089 0.7941999999999995 13.665000000000001 0.7941999999999995 C 13.190000000000001 0.7941999999999995 13.134 0.9601999999999995 13.134 1.0841999999999994 C 13.134 1.2351999999999994 13.199 1.2781999999999993 13.841000000000001 1.3631999999999995 C 14.476 1.4471999999999996 14.778 1.5661999999999996 14.778 2.0121999999999995 C 14.778 2.4621999999999997 14.403 2.7201999999999993 13.748000000000001 2.7201999999999993 z M 6.508 1.0362 C 6.524 1.0272000000000001 6.543 1.0272000000000001 6.559 1.0362 L 6.98 1.2792 C 6.996 1.2881999999999998 7.006 1.3052 7.006 1.3232 L 7.006 1.8092 C 7.006 1.8272 6.996 1.8441999999999998 6.98 1.8532 L 6.559 2.0962 C 6.543 2.1052 6.524 2.1052 6.508 2.0962 L 6.088 1.8532000000000002 C 6.072 1.8442000000000003 6.063 1.8272000000000002 6.063 1.8092000000000001 L 6.063 1.3232000000000002 C 6.063 1.3052000000000001 6.0729999999999995 1.2882000000000002 6.088 1.2792000000000001 z" stroke-linecap="round" />
</g>
</svg>